<?xml version="1.0" encoding="utf-8"?>
<!-- Generator: Adobe Illustrator 27.8.1, SVG Export Plug-In . SVG Version: 6.00 Build 0)  -->
<svg version="1.1" id="Capa_1" xmlns="http://www.w3.org/2000/svg" xmlns:xlink="http://www.w3.org/1999/xlink" x="0px" y="0px"
	 viewBox="0 0 512 512" style="enable-background:new 0 0 512 512;" xml:space="preserve">
<g id="_x31_1_x2C__Illustrator_x2C__Adobe_x2C__Ai">
	<g>
		<path d="M0,0.5v512h512V0.5H0z M489.5,490h-467V23h466.9L489.5,490L489.5,490z"/>
		<g>
			<g id="XMLID_1211_">
				<g id="XMLID_1220_">
					<g>
						<path id="XMLID_130_" d="M176.9,291.9l-18.5,61.3c-0.3,2.1-1.2,2.8-3,2.8h-30.9c-2.1,0-2.7-1.1-2.1-3.5
							c16.4-53.9,43.9-143.7,63.3-204.7c0.9-3.5,1.8-7,2.4-19.4c0-1.4,0.9-2.1,1.8-2.1h41.8c1.5,0,1.8,0.4,2.4,1.8
							c22.4,72.2,47,151.8,70,224.7c0.6,2.1,0,3.2-1.8,3.2h-33.9c-1.5,0-2.1-0.7-2.7-2.1l-19.4-62H176.9L176.9,291.9z M238.1,257.4
							c-6.1-23.6-20.9-71.2-27-95.8h-0.3c-4.5,23.2-17,63.1-26.1,95.8H238.1z"/>
					</g>
				</g>
				<g id="XMLID_1212_">
					<g>
						<path id="XMLID_137_" d="M334.9,139.7c0-13,8.6-21.8,20.2-21.8c12.2,0,19.6,8.8,19.6,21.8c0,13.4-8,21.8-19.9,21.8
							C342.9,161.5,334.9,153.1,334.9,139.7z M337,187.6c0-2.1,0.6-2.8,2.1-2.8h31.6c1.8,0,2.4,0.4,2.4,2.8v165.6
							c0,1.8-0.6,2.8-2.4,2.8h-31c-1.8,0-2.7-0.7-2.7-3.2V187.6L337,187.6z"/>
					</g>
				</g>
			</g>
		</g>
	</g>
</g>
<g id="Layer_1_00000052823293015985122730000005746006703358862240_">
</g>
</svg>
