<?xml version="1.0" encoding="UTF-8"?>
<svg id="Layer_1" data-name="Layer 1" xmlns="http://www.w3.org/2000/svg" viewBox="0 0 887.85 671.7">
  <defs>
    <style>
      .cls-1 {
        fill: none;
        stroke: #171717;
        stroke-linecap: round;
        stroke-linejoin: round;
        stroke-width: 40px;
      }
    </style>
  </defs>
  <path class="cls-1" d="m120.09,627.54c4.13,16.98,21.25,27.39,38.22,23.26.28-.07.56-.14.84-.22,186.21-51.56,382.93-51.56,569.14,0,16.86,4.59,34.25-5.35,38.85-22.21.08-.28.15-.56.22-.84l99.61-423.05c4.05-16.78-6.26-33.66-23.04-37.71-6.66-1.61-13.66-.98-19.93,1.78l-197.66,87.89c-14.83,6.53-32.2.8-40.23-13.28l-114.84-207.03c-8.36-15.1-27.37-20.57-42.47-12.21-5.14,2.84-9.37,7.08-12.21,12.21l-114.84,207.03c-8.03,14.08-25.4,19.81-40.23,13.28L63.84,168.55c-15.8-6.95-34.24.21-41.19,16.01-2.76,6.27-3.38,13.27-1.78,19.93l99.22,423.05Z"/>
  <path class="cls-1" d="m318.92,493.55c83.09-8.98,166.91-8.98,250,0"/>
</svg>