<?xml version="1.0" encoding="utf-8"?>
<!-- Generator: Adobe Illustrator 27.8.1, SVG Export Plug-In . SVG Version: 6.00 Build 0)  -->
<svg version="1.1" id="Layer_1" xmlns="http://www.w3.org/2000/svg" xmlns:xlink="http://www.w3.org/1999/xlink" x="0px" y="0px"
	 viewBox="0 0 887.8 671.7" style="enable-background:new 0 0 887.8 671.7;" xml:space="preserve">
<g>
	<path d="M150.7,671.7c-9.4,0-18.6-2.6-26.7-7.5c-11.8-7.2-20.1-18.5-23.3-31.9c0-0.1,0-0.1,0-0.2l-99.2-423
		c-2.6-10.8-1.5-22.4,2.9-32.6c11.4-25.9,41.7-37.6,67.5-26.3l197.8,87.9c5.4,2.4,11.7,0.3,14.7-4.8L399.1,26.4
		c4.7-8.4,11.6-15.4,20-20c12-6.6,25.8-8.2,39-4.4c13.2,3.8,24,12.5,30.7,24.4l114.8,206.9c3,5.1,9.3,7.2,14.8,4.8l197.6-87.9
		c10.3-4.5,21.9-5.6,32.8-2.9c13.3,3.2,24.6,11.4,31.7,23.1c7.1,11.7,9.3,25.4,6.1,38.7l-99.6,423c0,0.1,0,0.2-0.1,0.3
		c-0.1,0.5-0.2,0.9-0.3,1.3c-7.5,27.4-35.9,43.6-63.4,36.1c-182.7-50.6-375.8-50.6-558.5,0c-0.5,0.1-0.9,0.3-1.4,0.4
		C159,671.2,154.8,671.7,150.7,671.7z M443.7,591.9c97.5,0,195.1,13.1,289.9,39.4c6.1,1.7,12.5-2,14.2-8.2c0-0.1,0-0.2,0.1-0.2l0,0
		l99.6-423c0,0,0-0.1,0-0.1c0.7-2.9,0.2-5.9-1.3-8.5c-1.6-2.6-4-4.4-7-5.1c-2.4-0.6-4.9-0.3-7.2,0.6l-197.6,87.9
		c-24.4,10.7-52.6,1.4-65.7-21.6c0-0.1-0.1-0.1-0.1-0.2l-114.8-207c-1.5-2.6-3.9-4.6-6.7-5.4c-2.9-0.8-5.9-0.5-8.5,1
		c-1.9,1-3.4,2.5-4.4,4.4l-114.8,207c0,0.1-0.1,0.1-0.1,0.2c-13.1,23.1-41.4,32.4-65.7,21.7L55.7,186.8c-5.6-2.5-12.3,0.1-14.8,5.8
		c-1,2.2-1.2,4.8-0.6,7.2c0,0,0,0.1,0,0.1l99.2,423c0.7,3,2.6,5.5,5.2,7.1c2.7,1.6,5.8,2.1,8.8,1.4l0.1,0
		C248.6,605.1,346.2,591.9,443.7,591.9z"/>
</g>
<g>
	<path d="M568.9,513.6c-0.7,0-1.4,0-2.2-0.1c-81.5-8.8-164.2-8.8-245.7,0c-11,1.2-20.8-6.8-22-17.7s6.8-20.8,17.7-22
		c84.4-9.1,169.9-9.1,254.3,0c11,1.2,18.9,11.1,17.7,22C587.7,506,579,513.6,568.9,513.6z"/>
</g>
</svg>
