<?xml version="1.0" encoding="utf-8"?>
<!-- Generator: Adobe Illustrator 27.8.1, SVG Export Plug-In . SVG Version: 6.00 Build 0)  -->
<svg version="1.1" id="Capa_1" xmlns="http://www.w3.org/2000/svg" xmlns:xlink="http://www.w3.org/1999/xlink" x="0px" y="0px"
	 viewBox="0 0 791.8 791.8" style="enable-background:new 0 0 791.8 791.8;" xml:space="preserve">
<path d="M343.6,791.8C153.8,791.8,0,638,0,448.2s153.8-343.6,343.6-343.6s343.6,153.8,343.6,343.6S533.4,791.8,343.6,791.8z
	 M412.3,714.5c53.2-13.8,101.1-43.2,137.4-84.5V413.8c-38,0-68.7-30.8-68.7-68.7v-135c-31.7-18.2-66.8-29.9-103.1-34.4v32
	c0,38-30.8,68.7-68.7,68.7v34.4c0,38-30.8,68.7-68.7,68.7v68.7h103.1c38,0,68.7,30.8,68.7,68.7V714.5z M274.9,714.5V620
	c-38,0-68.7-30.8-68.7-68.7v-34.4H189c-28.5,0-51.5-23.1-51.5-51.5v-85.9H77.3C39.5,526.5,127.9,676.4,274.9,714.5z"/>
</svg>
