<?xml version="1.0" encoding="utf-8"?>
<!-- Generator: Adobe Illustrator 27.8.1, SVG Export Plug-In . SVG Version: 6.00 Build 0)  -->
<svg version="1.1" id="Layer_1" xmlns="http://www.w3.org/2000/svg" xmlns:xlink="http://www.w3.org/1999/xlink" x="0px" y="0px"
	 viewBox="0 0 512 512" style="enable-background:new 0 0 512 512;" xml:space="preserve">
<path d="M421.7,52.4v346c0,0-1.2,59.3-69,59.3c-74.2,0-79.2-48.2-79.2-59.3c0-23.8,9.3-49.8,79.1-49.8c32.1,0,39.5-8.3,39.5-29.3
	c0,0,0-152.9,0-165.9s-0.8-17.7-15.3-14.5c-24.9,5.6-187.4,40.9-193.9,42.4s-8.3,5.4-8.3,16.8c0,21,0,227.3,0,249.6
	S157.4,507,95.5,507s-69.2-39.5-69.2-59.3c0-29.4,22.2-48.3,69.3-48.3c43.8,0,49.4-12.3,49.4-30.7c0-65.6,0-257.4,0-266.9
	s3.9-15.9,13.5-18c16.1-3.5,245-50.7,245-50.7S421.7,28.9,421.7,52.4z"/>
</svg>
