<?xml version="1.0" encoding="utf-8"?>
<!-- Generator: Adobe Illustrator 27.8.1, SVG Export Plug-In . SVG Version: 6.00 Build 0)  -->
<svg version="1.1" id="Layer_1" xmlns="http://www.w3.org/2000/svg" xmlns:xlink="http://www.w3.org/1999/xlink" x="0px" y="0px"
	 viewBox="0 0 149.2 211" style="enable-background:new 0 0 149.2 211;" xml:space="preserve">
<g>
	<path d="M74.6,152c-24.8,0-45-20.2-45-45V43c0-24.8,20.2-45,45-45c24.8,0,45,20.2,45,45v64C119.6,131.8,99.4,152,74.6,152z M74.6,8
		c-19.3,0-35,15.7-35,35v64c0,19.3,15.7,35,35,35s35-15.7,35-35V43C109.6,23.7,93.9,8,74.6,8z"/>
</g>
<g>
	<rect x="69.6" y="179" width="10" height="32"/>
</g>
<g>
	<path d="M74.7,183.6c-3.1,0-6.1-0.2-9.2-0.5C30,178.9,2.2,151.1-2,115.6l9.9-1.2c3.7,30.9,27.8,55.1,58.7,58.7
		c17.8,2.1,35.4-2.8,49.4-13.9s23-27,25.1-44.8l9.9,1.2c-2.4,20.5-12.7,38.7-28.8,51.5C108.6,177.9,92,183.6,74.7,183.6z"/>
</g>
</svg>
