<?xml version="1.0" encoding="utf-8"?>
<!-- Generator: Adobe Illustrator 27.8.1, SVG Export Plug-In . SVG Version: 6.00 Build 0)  -->
<svg version="1.1" id="Layer_1" xmlns="http://www.w3.org/2000/svg" xmlns:xlink="http://www.w3.org/1999/xlink" x="0px" y="0px"
	 viewBox="0 0 149.2 211" style="enable-background:new 0 0 149.2 211;" xml:space="preserve">
<g>
	<path d="M74.6,150.5c-24,0-43.5-19.5-43.5-43.5V43c0-24,19.5-43.5,43.5-43.5c24,0,43.5,19.5,43.5,43.5v64
		C118.1,131,98.6,150.5,74.6,150.5z M74.6,6.5C54.5,6.5,38.1,22.9,38.1,43v64c0,20.1,16.4,36.5,36.5,36.5s36.5-16.4,36.5-36.5V43
		C111.1,22.9,94.7,6.5,74.6,6.5z"/>
</g>
<g>
	<rect x="71.1" y="179" width="7" height="32"/>
</g>
<g>
	<path d="M74.7,182.1c-3,0-6-0.2-9-0.5c-34.8-4.1-62.1-31.3-66.2-66.2l7-0.8c3.7,31.6,28.4,56.3,60.1,60.1
		c18.2,2.2,36.1-2.9,50.5-14.3c14.4-11.3,23.5-27.6,25.7-45.8l7,0.8c-2.4,20.1-12.4,38-28.3,50.5C107.9,176.5,91.6,182.1,74.7,182.1
		z"/>
</g>
</svg>
