<?xml version="1.0" encoding="utf-8"?>
<!-- Generator: Adobe Illustrator 27.8.1, SVG Export Plug-In . SVG Version: 6.00 Build 0)  -->
<svg version="1.1" id="Layer_1" xmlns="http://www.w3.org/2000/svg" xmlns:xlink="http://www.w3.org/1999/xlink" x="0px" y="0px"
	 viewBox="0 0 149.2 211" style="enable-background:new 0 0 149.2 211;" xml:space="preserve">
<g>
	<path d="M74.6,151c-24.3,0-44-19.7-44-44V43c0-24.3,19.7-44,44-44s44,19.7,44,44v64C118.6,131.3,98.8,151,74.6,151z M74.6,7
		c-19.9,0-36,16.1-36,36v64c0,19.9,16.1,36,36,36s36-16.1,36-36V43C110.6,23.1,94.4,7,74.6,7z"/>
</g>
<g>
	<rect x="70.6" y="179" width="8" height="32"/>
</g>
<g>
	<path d="M74.7,182.6c-3,0-6.1-0.2-9.1-0.5C30.6,177.9,3.2,150.5-1,115.5l7.9-0.9c3.7,31.4,28.2,55.9,59.6,59.6
		c18.1,2.1,35.9-2.9,50.2-14.1c14.3-11.3,23.3-27.4,25.5-45.5l7.9,0.9c-2.4,20.2-12.5,38.2-28.5,50.8
		C108.1,177,91.7,182.6,74.7,182.6z"/>
</g>
</svg>
