<?xml version="1.0" encoding="utf-8"?>
<!-- Generator: Adobe Illustrator 27.8.1, SVG Export Plug-In . SVG Version: 6.00 Build 0)  -->
<svg version="1.1" id="Layer_1" xmlns="http://www.w3.org/2000/svg" xmlns:xlink="http://www.w3.org/1999/xlink" x="0px" y="0px"
	 viewBox="0 0 149.2 211" style="enable-background:new 0 0 149.2 211;" xml:space="preserve">
<g>
	<path d="M74.6,150c-23.7,0-43-19.3-43-43V43c0-23.7,19.3-43,43-43c23.7,0,43,19.3,43,43v64C117.6,130.7,98.3,150,74.6,150z M74.6,6
		c-20.4,0-37,16.6-37,37v64c0,20.4,16.6,37,37,37c20.4,0,37-16.6,37-37V43C111.6,22.6,95,6,74.6,6z"/>
</g>
<g>
	<rect x="71.6" y="179" width="6" height="32"/>
</g>
<g>
	<path d="M74.7,181.6c-3,0-6-0.2-9-0.5C31.1,177,4.1,150,0,115.4l6-0.7c3.8,31.8,28.6,56.7,60.5,60.5c18.3,2.2,36.4-2.9,50.9-14.4
		c14.5-11.4,23.7-27.8,25.8-46.1l6,0.7c-2.4,19.9-12.3,37.7-28.1,50.1C107.7,176,91.5,181.6,74.7,181.6z"/>
</g>
</svg>
