<?xml version="1.0" encoding="utf-8"?>
<!-- Generator: Adobe Illustrator 27.8.1, SVG Export Plug-In . SVG Version: 6.00 Build 0)  -->
<svg version="1.1" id="Layer_1" xmlns="http://www.w3.org/2000/svg" xmlns:xlink="http://www.w3.org/1999/xlink" x="0px" y="0px"
	 viewBox="0 0 256 256" style="enable-background:new 0 0 256 256;" xml:space="preserve">
<path d="M128,176c26.5,0,48-21.5,48-48V48c0-26.5-21.5-48-48-48S80,21.5,80,48v80C80,154.5,101.5,176,128,176z"/>
<path d="M208,128V96h-16v29.5c0,30.7-20.5,59-50.6,65.1C100.3,199,64,167.7,64,128V96H48v32c0,38.6,27.5,70.9,64,78.4V240H80v16h96
	v-16h-32v-33.6C180.5,198.9,208,166.6,208,128z"/>
</svg>
