<?xml version="1.0" encoding="utf-8"?>
<!-- Generator: Adobe Illustrator 27.8.1, SVG Export Plug-In . SVG Version: 6.00 Build 0)  -->
<svg version="1.1" id="Capa_1" xmlns="http://www.w3.org/2000/svg" xmlns:xlink="http://www.w3.org/1999/xlink" x="0px" y="0px"
	 viewBox="0 0 512 512" style="enable-background:new 0 0 512 512;" xml:space="preserve">
<g id="_x32_3_x2C__Photoshop_x2C__Adobe">
	<g>
		<path d="M0,0.5v512h512V0.5H0z M489.5,490H22.5V23h466.9L489.5,490L489.5,490z"/>
		<g>
			<g>
				<g id="XMLID_1346_">
					<g>
						<path id="XMLID_108_" d="M124.4,124.2c0-1.8,0.3-2.5,1.8-2.5c11.5-0.4,34.2-0.7,57.3-0.7c59.4,0,82,34.6,82.3,75.4
							c0,56-41.7,77.2-86.3,77.2c-8.5,0-16.7,0-18.8,0v80c0,2.1-0.6,2.8-2.1,2.8h-32.1c-1.5,0-2.1-0.7-2.1-2.5L124.4,124.2
							L124.4,124.2z M160.8,239.5c2.4,0.4,7,0.7,19.7,0.7c23.9,0,47-6.8,47-42c0-28.2-15.4-42.7-43.9-42.7
							c-11.8,0-20.3,0.4-22.7,0.7V239.5z"/>
					</g>
				</g>
				<g id="XMLID_1340_">
					<g>
						<path id="XMLID_66_" d="M341.4,213.2c-14.6,0-18.5,9.1-18.5,15.8c0,8.5,3.9,13,26.2,23.6c30.7,14.8,43.8,27.8,43.8,53.2
							c0,35.2-22.9,55.3-55.7,55.3c-15.8,0-35.7-1.5-48.2-10.7c-1.2-0.7-1.8-1.8-1.8-3.5v-32.4c0-1.8,1.2-2.5,2.1-1.8
							c15.5,11.6,32.7,14.9,48.2,14.9c13.7,0,18.5-9.1,18.5-16.9c0-9.2-3.3-14.4-24.7-24.7c-30.7-14.8-43.4-27.5-43.4-53.2
							c0-28.5,21.4-52.1,56.5-52.1c18.2,0,31,0.5,39.3,6.1c1.5,1.4,1.8,2.5,1.8,4.6v28.9c0,2.1-1.2,3.2-2.7,2.1
							C372.1,215.4,356.9,213.2,341.4,213.2z"/>
					</g>
				</g>
			</g>
		</g>
	</g>
</g>
<g id="Layer_1_00000148628509357720617850000002984356222438258106_">
</g>
</svg>
