<?xml version="1.0" encoding="utf-8"?>
<!-- Generator: Adobe Illustrator 27.8.1, SVG Export Plug-In . SVG Version: 6.00 Build 0)  -->
<svg version="1.1" id="Layer_1" xmlns="http://www.w3.org/2000/svg" xmlns:xlink="http://www.w3.org/1999/xlink" x="0px" y="0px"
	 viewBox="0 0 512 511" style="enable-background:new 0 0 512 511;" xml:space="preserve">
<g id="_x38__x2C__Premier_Pro_x2C__Adobe">
	<g>
		<path d="M0-0.5v512h512v-512H0z M489.5,489H22.5V22h466.9L489.5,489L489.5,489z"/>
		<g>
			<g>
				<g id="XMLID_864_">
					<g>
						<path id="XMLID_141_" d="M133.6,124.2c0-1.8,0.3-2.5,1.8-2.5c11.5-0.3,34.2-0.7,57.3-0.7c59.4,0,82,34.6,82.3,75.4
							c0,56-41.7,77.2-86.3,77.2c-8.5,0-16.7,0-18.8,0v80c0,2.1-0.6,2.8-2.1,2.8h-32.1c-1.5,0-2.1-0.7-2.1-2.5L133.6,124.2
							L133.6,124.2z M170,239.5c2.4,0.4,7,0.7,19.7,0.7c23.9,0,47-6.8,47-42.1c0-28.2-15.5-42.7-43.9-42.7
							c-11.8,0-20.3,0.4-22.7,0.7L170,239.5L170,239.5z"/>
					</g>
				</g>
				<g id="XMLID_858_">
					<g>
						<path id="XMLID_91_" d="M382.5,179.3c1.3-0.1,2.9,0,4.1,0.4c1.6,0.4,1.9,0.7,1.9,3.5v30.6c0,1.8-0.6,2.5-2.5,2.5
							c-18.1-0.7-26.6-1.3-39.6,4v132.5c0,2.1-0.6,2.8-2.5,2.8h-33.3c-1.9,0-2.5-0.7-2.5-2.8V234c0-15.5-0.6-27.2-1.6-38.8
							c-0.3-1.4,0.3-2.1,1.9-2.1C308.4,193,339.1,181.6,382.5,179.3z"/>
					</g>
				</g>
			</g>
		</g>
	</g>
</g>
<g id="Layer_1_00000131327643543951423770000004971063021743612092_">
</g>
</svg>
