<?xml version="1.0" encoding="utf-8"?>
<!-- Generator: Adobe Illustrator 27.8.1, SVG Export Plug-In . SVG Version: 6.00 Build 0)  -->
<svg version="1.1" id="Layer_1" xmlns="http://www.w3.org/2000/svg" xmlns:xlink="http://www.w3.org/1999/xlink" x="0px" y="0px"
	 viewBox="0 0 256 256" style="enable-background:new 0 0 256 256;" xml:space="preserve">
<style type="text/css">
	.st0{fill:none;}
	.st1{fill:none;stroke:#4169E1;stroke-width:8;stroke-linecap:round;stroke-linejoin:round;}
</style>
<rect class="st0" width="256" height="256"/>
<path class="st1" d="M64,216c-4.4,0-8-3.6-8-8v-42.7c-4.4,2.1-9.3,3-14.1,2.6c-15.4-1.1-27-14.6-25.9-30c1.1-15.4,14.6-27,30-25.9
	c3.5,0.3,6.9,1.2,10,2.6V72c0-4.4,3.6-8,8-8h46.7c-2.1-4.4-3-9.3-2.6-14.1c1.1-15.4,14.6-27,30-25.9s27,14.6,25.9,30
	c-0.3,3.5-1.2,6.9-2.6,10H208c4.4,0,8,3.6,8,8v42.7c-4.4-2.1-9.3-3-14.1-2.6c-15.4,1.1-27,14.6-25.9,30c1.1,15.4,14.6,27,30,25.9
	c3.5-0.3,6.9-1.2,10-2.6V208c0,4.4-3.6,8-8,8H64z"/>
</svg>
