<?xml version="1.0" encoding="UTF-8"?>
<svg xmlns="http://www.w3.org/2000/svg" version="1.1" viewBox="0 0 256 256">
  <defs>
    <style>
      .cls-1 {
        fill: none;
        stroke: #4169e1;
        stroke-linecap: round;
        stroke-linejoin: round;
        stroke-width: 9px;
      }
    </style>
  </defs>
  <!-- Generator: Adobe Illustrator 28.6.0, SVG Export Plug-In . SVG Version: 1.2.0 Build 709)  -->
  <g>
    <g id="Layer_1">
      <path class="cls-1" d="M64,216c-4.4,0-8-3.6-8-8v-42.7c-4.4,2.1-9.3,3-14.1,2.6-15.4-1.1-27-14.6-25.9-30s14.6-27,30-25.9c3.5.3,6.9,1.2,10,2.6v-42.6c0-4.4,3.6-8,8-8h46.7c-2.1-4.4-3-9.3-2.6-14.1,1.1-15.4,14.6-27,30-25.9s27,14.6,25.9,30c-.3,3.5-1.2,6.9-2.6,10h46.6c4.4,0,8,3.6,8,8v42.7c-4.4-2.1-9.3-3-14.1-2.6-15.4,1.1-27,14.6-25.9,30s14.6,27,30,25.9c3.5-.3,6.9-1.2,10-2.6v42.6c0,4.4-3.6,8-8,8H64Z"/>
    </g>
  </g>
</svg>