<?xml version="1.0" encoding="UTF-8"?>
<svg id="Layer_1" data-name="Layer 1" xmlns="http://www.w3.org/2000/svg" viewBox="0 0 937.05 1011.09">
  <defs>
    <style>
      .cls-1 {
        stroke: #231f20;
        stroke-miterlimit: 10;
        stroke-width: 12px;
      }
    </style>
  </defs>
  <g id="Layer_2" data-name="Layer 2">
    <g id="Layer_1-2" data-name="Layer 1-2">
      <path id="brainstorming" class="cls-1" d="m186.64,772.61c22.32,70.22,33.62,143.47,33.51,217.15.09,8.38-6.64,15.24-15.01,15.33-8.38.09-15.24-6.64-15.33-15.01-.05-69.48-10.45-138.56-30.88-204.97C97.18,668.2-8.2,541.85,7.59,396.57c.48-8.31,7.48-14.73,15.79-14.5,8.36.36,14.85,7.43,14.5,15.79-1.76,97.86,29.69,193.42,89.23,271.09,21.93,33.31,41.81,67.92,59.52,103.65Zm724.09-222.33c-31.64-35.7-57.46-76.16-76.52-119.89-3.5-7.61-12.5-10.95-20.12-7.46-7.06,3.24-10.53,11.3-8.04,18.66,20.19,46.8,47.71,90.09,81.52,128.23,7.72,10.8,24.54,31.72-.49,44.62-26.37,14.73-53.67,27.71-81.74,38.86-6.53,2.51-10.49,9.17-9.59,16.11,6.42,47.84,6.96,96.28,1.61,144.25-4.46,22.71-55.64,37.97-127.69,37.97-33.87-3.01-63.77,22.02-66.77,55.89-.26,2.9-.31,5.81-.15,8.72v73.57c.45,8.37,7.6,14.78,15.97,14.33,7.73-.42,13.91-6.59,14.33-14.33v-73.44c-1.24-17.8,12.17-33.23,29.97-34.48,2.19-.15,4.39-.08,6.57.21,183.91-.94,167.54-65.77,157.54-204.84,51.85-23.2,145.23-52.16,83.61-126.98Zm-244.99-1.61l-190.96,447.15c-3.47,7.65-12.49,11.04-20.14,7.57-5.72-2.59-9.26-8.44-8.9-14.71l13.07-165.57,8.48-107.48-215.95,40.51c-8.23,1.54-16.16-3.88-17.7-12.12-.55-2.92-.22-5.94.93-8.67l189.27-450.01c3.49-7.67,12.54-11.06,20.21-7.57,5.66,2.57,9.19,8.32,8.93,14.53l-20.03,276.09,216.08-40.6c8.24-1.54,16.16,3.89,17.7,12.13.55,2.95.21,6-.97,8.75Zm-39.04,14.14l-207.51,39c-8.18,1.57-16.08-3.78-17.66-11.96-.25-1.28-.32-2.58-.24-3.88l14.72-203.72-142.78,339.09c3.57-.27,206.76-39.44,210.5-39.22,8.48.1,15.26,7.06,15.16,15.54,0,.28-.01.56-.03.84l-15.84,200.78,143.67-336.46Zm-465.22-132.47h131.58c8.37.45,15.52-5.96,15.97-14.33.45-8.37-5.96-15.52-14.33-15.97-.55-.03-1.1-.03-1.64,0h-131.58c-55.91,0-101.24-45.33-101.24-101.24,0-55.91,45.33-101.24,101.24-101.24s101.24,45.33,101.24,101.24c-.45,8.37,5.96,15.52,14.33,15.97,8.37.45,15.52-5.96,15.97-14.33.03-.55.03-1.1,0-1.64-.08-50.64-29.21-96.74-74.91-118.55,5.77-85.88,80.06-150.82,165.94-145.05,85.88,5.77,150.82,80.06,145.05,165.94-1.74,25.87-9.9,50.89-23.75,72.81-4.46,7.07-2.34,16.42,4.73,20.88,7.07,4.46,16.42,2.34,20.88-4.73,24.75-39.16,33.92-86.17,25.7-131.75,36.83-38.6,97.97-40.04,136.57-3.21,38.6,36.83,40.04,97.97,3.21,136.57-5.74,6.02-12.23,11.27-19.32,15.62-7.14,4.33-9.43,13.63-5.1,20.77,0,0,0,.01.01.02,19.01,22.84,47.92-17.85,59.56-31.59,28.44-3.93,54.67,15.94,58.6,44.38,3.93,28.44-15.94,54.67-44.38,58.6-2.22.31-4.45.47-6.69.49h-223.71c-8.37-.45-15.52,5.96-15.97,14.33-.45,8.37,5.96,15.52,14.33,15.97.55.03,1.1.03,1.64,0h223.49c45.53-.66,81.91-38.1,81.26-83.63-.6-41.63-32.14-76.29-73.54-80.78,22.13-66.75-14.04-138.81-80.79-160.94-40.42-13.4-84.86-5.71-118.42,20.49C510.33,29.32,402.34-18.53,306.22,18.56c-64.31,24.82-109.69,83.07-118.02,151.49-71.19-14.07-140.31,32.24-154.38,103.43-14.07,71.19,32.24,140.31,103.43,154.38,7.98,1.58,16.09,2.41,24.22,2.49Z"/>
    </g>
  </g>
</svg>