<?xml version="1.0" encoding="utf-8"?>
<!-- Generator: Adobe Illustrator 27.8.1, SVG Export Plug-In . SVG Version: 6.00 Build 0)  -->
<svg version="1.1" id="Layer_1" xmlns="http://www.w3.org/2000/svg" xmlns:xlink="http://www.w3.org/1999/xlink" x="0px" y="0px"
	 viewBox="0 0 937 1011.1" style="enable-background:new 0 0 937 1011.1;" xml:space="preserve">
<style type="text/css">
	.st0{stroke:#000000;stroke-width:12;stroke-miterlimit:10;}
</style>
<g id="Layer_2_00000016775511736359087760000011851219680338978232_">
	<g id="Layer_1-2">
		<path id="brainstorming" class="st0" d="M186.6,772.6c22.3,70.2,33.6,143.5,33.5,217.2c0.1,8.4-6.6,15.2-15,15.3
			c-8.4,0.1-15.2-6.6-15.3-15c-0.1-69.5-10.4-138.6-30.9-205C97.2,668.2-8.2,541.8,7.6,396.6c0.5-8.3,7.5-14.7,15.8-14.5
			c8.4,0.4,14.9,7.4,14.5,15.8c-1.8,97.9,29.7,193.4,89.2,271.1C149,702.3,168.9,736.9,186.6,772.6L186.6,772.6z M910.7,550.3
			c-31.6-35.7-57.5-76.2-76.5-119.9c-3.5-7.6-12.5-11-20.1-7.5c-7.1,3.2-10.5,11.3-8,18.7c20.2,46.8,47.7,90.1,81.5,128.2
			c7.7,10.8,24.5,31.7-0.5,44.6c-26.4,14.7-53.7,27.7-81.7,38.9c-6.5,2.5-10.5,9.2-9.6,16.1c6.4,47.8,7,96.3,1.6,144.2
			c-4.5,22.7-55.6,38-127.7,38c-33.9-3-63.8,22-66.8,55.9c-0.3,2.9-0.3,5.8-0.2,8.7v73.6c0.5,8.4,7.6,14.8,16,14.3
			c7.7-0.4,13.9-6.6,14.3-14.3v-73.4c-1.2-17.8,12.2-33.2,30-34.5c2.2-0.2,4.4-0.1,6.6,0.2c183.9-0.9,167.5-65.8,157.5-204.8
			C879,654.1,972.4,625.1,910.7,550.3L910.7,550.3z M665.7,548.7l-191,447.1c-3.5,7.7-12.5,11-20.1,7.6c-5.7-2.6-9.3-8.4-8.9-14.7
			l13.1-165.6l8.5-107.5l-215.9,40.5c-8.2,1.5-16.2-3.9-17.7-12.1c-0.6-2.9-0.2-5.9,0.9-8.7l189.3-450c3.5-7.7,12.5-11.1,20.2-7.6
			c5.7,2.6,9.2,8.3,8.9,14.5l-20,276.1L649,527.8c8.2-1.5,16.2,3.9,17.7,12.1C667.3,542.9,666.9,545.9,665.7,548.7L665.7,548.7z
			 M626.7,562.8l-207.5,39c-8.2,1.6-16.1-3.8-17.7-12c-0.2-1.3-0.3-2.6-0.2-3.9L416,382.2L273.2,721.3
			c3.6-0.3,206.8-39.4,210.5-39.2c8.5,0.1,15.3,7.1,15.2,15.5c0,0.3,0,0.6,0,0.8L483,899.3L626.7,562.8L626.7,562.8z M161.5,430.3
			h131.6c8.4,0.5,15.5-6,16-14.3s-6-15.5-14.3-16c-0.5,0-1.1,0-1.6,0H161.5c-55.9,0-101.2-45.3-101.2-101.2s45.3-101.2,101.2-101.2
			s101.2,45.3,101.2,101.2c-0.5,8.4,6,15.5,14.3,16s15.5-6,16-14.3c0-0.5,0-1.1,0-1.6c-0.1-50.6-29.2-96.7-74.9-118.6
			c5.8-85.9,80.1-150.8,165.9-145.1s150.8,80.1,145,165.9c-1.7,25.9-9.9,50.9-23.8,72.8c-4.5,7.1-2.3,16.4,4.7,20.9
			c7.1,4.5,16.4,2.3,20.9-4.7c24.8-39.2,33.9-86.2,25.7-131.8c36.8-38.6,98-40,136.6-3.2c38.6,36.8,40,98,3.2,136.6
			c-5.7,6-12.2,11.3-19.3,15.6c-7.1,4.3-9.4,13.6-5.1,20.8c0,0,0,0,0,0c19,22.8,47.9-17.9,59.6-31.6c28.4-3.9,54.7,15.9,58.6,44.4
			s-15.9,54.7-44.4,58.6c-2.2,0.3-4.5,0.5-6.7,0.5H515.4c-8.4-0.5-15.5,6-16,14.3s6,15.5,14.3,16c0.5,0,1.1,0,1.6,0h223.5
			c45.5-0.7,81.9-38.1,81.3-83.6c-0.6-41.6-32.1-76.3-73.5-80.8c22.1-66.8-14-138.8-80.8-160.9c-40.4-13.4-84.9-5.7-118.4,20.5
			c-37.1-96.1-145.1-144-241.2-106.9c-64.3,24.8-109.7,83.1-118,151.5C117,156,47.9,202.3,33.8,273.5s32.2,140.3,103.4,154.4
			C145.2,429.4,153.3,430.3,161.5,430.3L161.5,430.3z"/>
	</g>
</g>
</svg>
