<?xml version="1.0" encoding="utf-8"?>
<!-- Generator: Adobe Illustrator 27.8.1, SVG Export Plug-In . SVG Version: 6.00 Build 0)  -->
<svg version="1.1" id="Layer_1" xmlns="http://www.w3.org/2000/svg" xmlns:xlink="http://www.w3.org/1999/xlink" x="0px" y="0px"
	 viewBox="0 0 512 512" style="enable-background:new 0 0 512 512;" xml:space="preserve">
<style type="text/css">
	.st0{fill:#FFFFFF;}
</style>
<g>
	<path class="st0" d="M275.3,229.2v-0.8c-0.2,0.3-0.3,0.5-0.5,0.8H275.3z"/>
	<path class="st0" d="M474.1-3.2H37.8C16.9-3.2,0,13.3,0,33.7v441.4C0,495.5,16.9,512,37.8,512h436.3c20.9,0,37.9-16.5,37.9-36.9
		V33.7C512,13.3,495.1-3.2,474.1-3.2z M155.2,428.1H77.9V195.4h77.3V428.1z M116.5,163.6H116c-25.9,0-42.7-17.9-42.7-40.2
		c0-22.8,17.3-40.2,43.7-40.2c26.5,0,42.7,17.4,43.2,40.2C160.3,145.8,143.5,163.6,116.5,163.6z M434,428.1h-77.3V303.6
		c0-31.3-11.2-52.6-39.2-52.6c-21.4,0-34.1,14.4-39.7,28.3c-2,5-2.5,11.9-2.5,18.9v129.9H198c0,0,1-210.8,0-232.7h77.3v32.9
		c10.3-15.8,28.7-38.4,69.7-38.4c50.9,0,89,33.3,89,104.7L434,428.1L434,428.1z"/>
</g>
</svg>
